<svg width="212" height="29" viewBox="0 0 212 29" fill="none" xmlns="http://www.w3.org/2000/svg">
<path fill-rule="evenodd" clip-rule="evenodd" d="M99.2427 0.276957C99.3114 0.170266 99.4267 0.0952148 99.5646 0.0952148C99.7784 0.0952148 99.9517 0.265675 99.9517 0.475868V26.8101H96.1089V11.259L84.9355 26.3422C84.8809 26.4062 84.8017 26.4491 84.7103 26.4493C84.6189 26.4491 84.5394 26.4062 84.4848 26.3422L73.3114 11.259V26.8101H69.4686V0.475868C69.4686 0.265675 69.6419 0.0952148 69.8557 0.0952148C69.9936 0.0952148 70.1091 0.170266 70.1776 0.276957L84.7103 20.0415L99.2427 0.276957ZM56.9177 14.3196C56.9177 8.62478 52.3138 3.99194 46.6551 3.99194C40.9961 3.99194 36.3922 8.62478 36.3922 14.3196C36.3922 20.0142 40.9961 24.6473 46.6551 24.6473C52.3138 24.6473 56.9177 20.0142 56.9177 14.3196ZM32.552 14.3232C32.552 6.48352 38.8671 0.128418 46.6574 0.128418C54.4475 0.128418 60.7628 6.48352 60.7628 14.3232C60.7628 22.1627 54.4475 28.518 46.6574 28.518C38.8671 28.518 32.552 22.1627 32.552 14.3232ZM122.924 0.962402H110.119V27.6773H113.962V18.1014H122.924C127.627 18.1014 131.44 14.2647 131.44 9.53176C131.44 4.7991 127.627 0.962402 122.924 0.962402ZM122.922 14.2348H113.96V4.83008H122.922C125.499 4.83008 127.595 6.93961 127.595 9.53233C127.595 12.1253 125.499 14.2348 122.922 14.2348ZM14.9119 24.6475C18.21 24.6475 21.1476 23.0721 23.0262 20.6317L25.7858 23.3613C23.1985 26.5088 19.288 28.5146 14.9119 28.5146C7.1216 28.5146 0.806519 22.1595 0.806519 14.3198C0.806519 6.48034 7.1216 0.125 14.9119 0.125C19.288 0.125 23.1982 2.13079 25.7856 5.27829L23.0262 8.00762C21.1473 5.56746 18.2097 3.99212 14.9119 3.99212C9.25295 3.99212 4.64928 8.6252 4.64928 14.3198C4.64928 20.0146 9.25295 24.6475 14.9119 24.6475ZM175.592 28.1526C171.147 28.1526 168.042 25.6774 166.22 23.6012L168.929 20.9413C169.609 21.8265 171.889 24.374 175.592 24.374C179.054 24.374 181.471 22.6211 181.471 20.1108C181.471 17.9645 180.02 16.5206 177.034 15.697L173.795 14.9573C166.869 13.2493 166.869 9.07408 166.869 7.70182C166.869 3.38636 170.331 0.486816 175.485 0.486816C178.869 0.486816 181.748 1.7828 184.288 4.44885L181.579 7.11269C180.884 6.3813 178.606 4.26588 175.485 4.26588C172.451 4.26588 170.711 5.51797 170.711 7.70182C170.711 8.353 170.957 10.5297 174.118 11.2126L177.064 11.8799C182.46 13.1548 185.314 16.0011 185.314 20.1108C185.314 24.6951 181.134 28.1526 175.592 28.1526ZM192.092 23.6012C193.914 25.6774 197.019 28.1526 201.464 28.1526C207.006 28.1526 211.186 24.6951 211.186 20.1108C211.186 16.0011 208.332 13.1548 202.936 11.8799L199.99 11.2126C196.829 10.5297 196.583 8.353 196.583 7.70182C196.583 5.51797 198.323 4.26588 201.357 4.26588C204.478 4.26588 206.756 6.3813 207.451 7.11269L210.16 4.44885C207.62 1.7828 204.741 0.486816 201.357 0.486816C196.204 0.486816 192.741 3.38636 192.741 7.70182C192.741 9.07408 192.741 13.2493 199.667 14.9573L202.906 15.697C205.892 16.5206 207.343 17.9645 207.343 20.1108C207.343 22.6211 204.926 24.374 201.464 24.374C197.761 24.374 195.481 21.8265 194.801 20.9413L192.092 23.6012ZM52.7145 10.9591L43.3176 20.4156L40.6003 17.6811L49.9973 8.22461L52.7145 10.9591ZM147.096 0.729492C147.252 0.729492 147.385 0.821467 147.446 0.952685L161.457 27.6801H157.111L153.523 20.8328H140.669L137.081 27.6801H132.735L146.746 0.952685C146.807 0.821467 146.94 0.729492 147.096 0.729492ZM147.094 8.56641L142.693 16.9638H151.494L147.094 8.56641Z" fill="#E0E0E0"/>
</svg>
