<svg width="146" height="56" viewBox="0 0 146 56" fill="none" xmlns="http://www.w3.org/2000/svg">
<rect x="0.5" y="0.5" width="144.833" height="55" fill="#333333" stroke="black"/>
<path d="M17.9507 36.1666V21.2776H27.5477V24.4276H21.2687V27.5776H26.7917V30.6016H21.2897V36.1666H17.9507Z" fill="white"/>
<path d="M38.7507 36.4816C37.6727 36.4816 36.6647 36.2996 35.7267 35.9356C34.7887 35.5576 33.9697 35.0326 33.2697 34.3606C32.5837 33.6886 32.0377 32.8766 31.6317 31.9246C31.2257 30.9726 31.0227 29.9156 31.0227 28.7536C31.0227 27.5916 31.2257 26.5346 31.6317 25.5826C32.0517 24.6166 32.6117 23.7976 33.3117 23.1256C34.0117 22.4396 34.8237 21.9076 35.7477 21.5296C36.6857 21.1516 37.6727 20.9626 38.7087 20.9626C39.8287 20.9626 40.7947 21.1236 41.6067 21.4456C42.4187 21.7676 43.1047 22.1806 43.6647 22.6846C44.2247 23.1746 44.6587 23.7136 44.9667 24.3016C45.2887 24.8896 45.5127 25.4496 45.6387 25.9816L42.5097 26.9686C42.4537 26.7166 42.3417 26.4296 42.1737 26.1076C42.0197 25.7856 41.7957 25.4846 41.5017 25.2046C41.2077 24.9106 40.8297 24.6726 40.3677 24.4906C39.9197 24.2946 39.3667 24.1966 38.7087 24.1966C38.2047 24.1966 37.7007 24.2876 37.1967 24.4696C36.6927 24.6516 36.2377 24.9316 35.8317 25.3096C35.4257 25.6736 35.0967 26.1426 34.8447 26.7166C34.5927 27.2906 34.4667 27.9696 34.4667 28.7536C34.4667 29.4536 34.5857 30.0766 34.8237 30.6226C35.0617 31.1686 35.3767 31.6306 35.7687 32.0086C36.1747 32.3866 36.6297 32.6736 37.1337 32.8696C37.6517 33.0656 38.1907 33.1636 38.7507 33.1636C39.3947 33.1636 39.9477 33.0726 40.4097 32.8906C40.8717 32.6946 41.2567 32.4566 41.5647 32.1766C41.8727 31.8826 42.1107 31.5746 42.2787 31.2526C42.4607 30.9306 42.5867 30.6366 42.6567 30.3706L45.8277 31.2736C45.7017 31.7916 45.4777 32.3516 45.1557 32.9536C44.8477 33.5556 44.4067 34.1226 43.8327 34.6546C43.2727 35.1726 42.5727 35.6066 41.7327 35.9566C40.8927 36.3066 39.8987 36.4816 38.7507 36.4816Z" fill="white"/>
<path d="M59.6344 36.1666L53.5024 26.3806V36.1666H50.2054V21.2776H54.2374L59.8234 30.3286V21.2776H63.1414V36.1666H59.6344Z" fill="white"/>
<path d="M71.784 27.44V23.345H74.472V27.44H78.441V30.044H74.472V34.139H71.784V30.044H67.794V27.44H71.784Z" fill="white"/>
<path d="M83.1163 36.1666V21.2776H92.7133V24.4276H86.4343V27.5776H91.9573V30.6016H86.4553V36.1666H83.1163Z" fill="white"/>
<path d="M101.646 30.6226H100.47V36.1666H97.1519V21.2776H103.053C103.781 21.2776 104.439 21.3966 105.027 21.6346C105.629 21.8726 106.14 22.2016 106.56 22.6216C106.98 23.0416 107.302 23.5386 107.526 24.1126C107.764 24.6726 107.883 25.2816 107.883 25.9396C107.883 26.9476 107.624 27.8226 107.106 28.5646C106.588 29.2926 105.867 29.8176 104.943 30.1396L107.967 36.1666H104.313L101.646 30.6226ZM102.423 27.7666C103.109 27.7666 103.627 27.5986 103.977 27.2626C104.341 26.9266 104.523 26.4926 104.523 25.9606C104.523 25.4006 104.341 24.9596 103.977 24.6376C103.627 24.3156 103.109 24.1546 102.423 24.1546H100.47V27.7666H102.423Z" fill="white"/>
<path d="M126.046 36.1666V26.2966L122.161 36.1666H119.473L115.588 26.4226V36.1666H112.438V21.2776H116.764L120.859 31.3366L124.744 21.2776H129.301V36.1666H126.046Z" fill="white"/>
<path d="M17.9507 36.1666V21.2776H27.5477V24.4276H21.2687V27.5776H26.7917V30.6016H21.2897V36.1666H17.9507Z" stroke="black"/>
<path d="M38.7507 36.4816C37.6727 36.4816 36.6647 36.2996 35.7267 35.9356C34.7887 35.5576 33.9697 35.0326 33.2697 34.3606C32.5837 33.6886 32.0377 32.8766 31.6317 31.9246C31.2257 30.9726 31.0227 29.9156 31.0227 28.7536C31.0227 27.5916 31.2257 26.5346 31.6317 25.5826C32.0517 24.6166 32.6117 23.7976 33.3117 23.1256C34.0117 22.4396 34.8237 21.9076 35.7477 21.5296C36.6857 21.1516 37.6727 20.9626 38.7087 20.9626C39.8287 20.9626 40.7947 21.1236 41.6067 21.4456C42.4187 21.7676 43.1047 22.1806 43.6647 22.6846C44.2247 23.1746 44.6587 23.7136 44.9667 24.3016C45.2887 24.8896 45.5127 25.4496 45.6387 25.9816L42.5097 26.9686C42.4537 26.7166 42.3417 26.4296 42.1737 26.1076C42.0197 25.7856 41.7957 25.4846 41.5017 25.2046C41.2077 24.9106 40.8297 24.6726 40.3677 24.4906C39.9197 24.2946 39.3667 24.1966 38.7087 24.1966C38.2047 24.1966 37.7007 24.2876 37.1967 24.4696C36.6927 24.6516 36.2377 24.9316 35.8317 25.3096C35.4257 25.6736 35.0967 26.1426 34.8447 26.7166C34.5927 27.2906 34.4667 27.9696 34.4667 28.7536C34.4667 29.4536 34.5857 30.0766 34.8237 30.6226C35.0617 31.1686 35.3767 31.6306 35.7687 32.0086C36.1747 32.3866 36.6297 32.6736 37.1337 32.8696C37.6517 33.0656 38.1907 33.1636 38.7507 33.1636C39.3947 33.1636 39.9477 33.0726 40.4097 32.8906C40.8717 32.6946 41.2567 32.4566 41.5647 32.1766C41.8727 31.8826 42.1107 31.5746 42.2787 31.2526C42.4607 30.9306 42.5867 30.6366 42.6567 30.3706L45.8277 31.2736C45.7017 31.7916 45.4777 32.3516 45.1557 32.9536C44.8477 33.5556 44.4067 34.1226 43.8327 34.6546C43.2727 35.1726 42.5727 35.6066 41.7327 35.9566C40.8927 36.3066 39.8987 36.4816 38.7507 36.4816Z" stroke="black"/>
<path d="M59.6344 36.1666L53.5024 26.3806V36.1666H50.2054V21.2776H54.2374L59.8234 30.3286V21.2776H63.1414V36.1666H59.6344Z" stroke="black"/>
<path d="M71.784 27.44V23.345H74.472V27.44H78.441V30.044H74.472V34.139H71.784V30.044H67.794V27.44H71.784Z" stroke="black"/>
<path d="M83.1163 36.1666V21.2776H92.7133V24.4276H86.4343V27.5776H91.9573V30.6016H86.4553V36.1666H83.1163Z" stroke="black"/>
<path d="M101.646 30.6226H100.47V36.1666H97.1519V21.2776H103.053C103.781 21.2776 104.439 21.3966 105.027 21.6346C105.629 21.8726 106.14 22.2016 106.56 22.6216C106.98 23.0416 107.302 23.5386 107.526 24.1126C107.764 24.6726 107.883 25.2816 107.883 25.9396C107.883 26.9476 107.624 27.8226 107.106 28.5646C106.588 29.2926 105.867 29.8176 104.943 30.1396L107.967 36.1666H104.313L101.646 30.6226ZM102.423 27.7666C103.109 27.7666 103.627 27.5986 103.977 27.2626C104.341 26.9266 104.523 26.4926 104.523 25.9606C104.523 25.4006 104.341 24.9596 103.977 24.6376C103.627 24.3156 103.109 24.1546 102.423 24.1546H100.47V27.7666H102.423Z" stroke="black"/>
<path d="M126.046 36.1666V26.2966L122.161 36.1666H119.473L115.588 26.4226V36.1666H112.438V21.2776H116.764L120.859 31.3366L124.744 21.2776H129.301V36.1666H126.046Z" stroke="black"/>
</svg>
